<svg width="54" height="55" viewBox="0 0 54 55" fill="none" xmlns="http://www.w3.org/2000/svg">
<path fill-rule="evenodd" clip-rule="evenodd" d="M30.4212 0.904297C35.6654 0.904297 41.9576 3.45201 42.4926 3.50296L42.507 3.50374C42.7885 3.50374 43.8883 4.34339 45.8064 6.0227L43.7288 10.0834L43.897 10.2443C44.7015 11.0173 45.3884 11.7218 45.9305 12.2772C50.3572 16.8122 51.1528 34.6177 50.1096 40.8271C49.0664 47.0364 47.1341 53.1124 38.1384 53.1124C29.1427 53.1124 19.1348 47.6921 17.5932 46.0041C16.5654 44.8788 15.4109 44.3397 14.1298 44.3867C14.0772 44.3202 14.0249 44.2538 13.9731 44.1876L13.7846 44.1608C12.0116 43.9035 10.7411 43.5571 9.97334 43.1218C8.47366 42.2716 6.82533 37.8018 6.82533 36.8172C6.82533 35.8424 4.36402 28.7511 4.3148 28.0007L4.31405 27.9799C4.31405 27.3526 1.0986 24.4688 1.0986 23.553C1.0986 22.6371 0.450477 22.6927 1.0986 19.4655L1.2869 18.5174C1.97661 15.0813 3.32656 9.39172 8.47366 6.91941C14.1298 4.20258 25.1239 0.904297 30.4212 0.904297Z" fill="#F9F9F9"/>
<path fill-rule="evenodd" clip-rule="evenodd" d="M30.4212 0.938477C35.6654 0.938477 41.9576 3.48619 42.4925 3.53714L42.507 3.53792C42.7885 3.53792 43.8882 4.37757 45.8064 6.05688L45.3401 6.96765C35.0147 7.17086 27.9079 8.01183 24.0197 9.49055C19.5121 11.2049 16.6824 17.7178 15.5307 29.0293C13.9558 29.7768 12.3809 30.7605 10.806 31.9806C9.23112 33.2007 8.83247 33.8309 9.61006 33.8712C9.54232 36.4859 9.75111 38.3119 10.2364 39.349C10.7218 40.3862 12.4016 40.9966 15.276 41.1802L16.0062 43.6307L15.9052 44.7664C15.3433 44.5133 14.7514 44.3981 14.1298 44.4209C14.0772 44.3543 14.0249 44.288 13.9731 44.2218L13.7846 44.195C12.0116 43.9377 10.7411 43.5913 9.97333 43.156C8.47365 42.3058 6.82532 37.836 6.82532 36.8513C6.82532 35.8766 4.36402 28.7853 4.31479 28.0349L4.31405 28.0141C4.31405 27.3867 1.0986 24.503 1.0986 23.5871C1.0986 22.6713 0.450477 22.7269 1.0986 19.4996L1.2869 18.5516C1.97661 15.1155 3.32655 9.4259 8.47365 6.95359C14.1298 4.23676 25.1239 0.938477 30.4212 0.938477Z" fill="#B4B4B4"/>
<path fill-rule="evenodd" clip-rule="evenodd" d="M7.61086 6.79209C10.4318 3.79161 26.4465 -0.849413 34.5488 0.134373L34.7918 0.165914C35.4384 0.248081 36.0756 0.372505 36.7045 0.541534C38.7373 1.01728 40.837 1.73765 42.5166 2.94092C43.9188 3.92528 48.3421 5.53282 47.0384 8.10793C47.5218 9.02573 47.7022 10.1596 47.3755 11.0636C47.3344 11.3758 47.2383 11.6634 47.1155 11.9616C48.1482 13.4888 48.966 15.216 49.6279 16.8587C50.7846 20.993 51.5044 25.2955 51.6098 29.5136C51.9605 37.5274 51.0836 47.1 44.1186 52.2821C39.9111 55.5659 33.3202 55.6762 28.5918 51.6047C28.3235 51.2865 27.0616 50.4277 27.4827 50.2771C27.608 50.4098 27.7369 50.5389 27.8681 50.6657C27.8621 50.6516 27.8609 50.6375 27.8634 50.6222L27.74 50.5103C27.5076 50.2949 27.2066 49.9824 27.5495 50.0436C27.5646 50.0612 27.5811 50.0764 27.5974 50.094C27.67 50.1377 27.7249 50.1755 27.7675 50.2089L27.7895 50.2265L27.7827 50.2194C27.5852 50.0084 27.4668 49.7931 27.7621 49.9306L27.8012 49.9497C27.9325 50.0882 28.0659 50.2208 28.2018 50.3499C28.1996 50.3347 28.2018 50.3194 28.2101 50.303L28.0834 50.1803C27.9598 50.0589 27.9786 50.0584 28.0391 49.9602C27.7762 49.5911 28.2669 49.8103 28.3013 49.9543C28.6084 49.8816 28.8779 50.4591 29.0756 50.5295C37.7434 57.2073 50.322 51.282 50.1183 32.6742L50.1152 32.3101C50.0556 26.3601 49.556 20.2446 47.1001 14.8585C46.8613 14.3397 46.5941 13.835 46.3002 13.3467C46.0976 12.9804 45.8809 12.6236 45.6478 12.2761C44.9952 12.2233 44.351 12.1036 43.7163 11.9181C43.4983 11.863 43.2827 11.8019 43.0673 11.7303C39.9188 11.9024 36.8404 12.0896 33.6831 12.2671L32.6968 12.3287C30.0222 12.501 27.2561 12.777 25.0977 14.4348C22.98 15.9441 22.9704 18.9203 21.1575 20.5773C18.5723 22.3356 18.5535 23.9211 18.0557 26.5121C18.0926 28.4654 19.4441 31.3033 16.964 32.1253C17.3824 32.7231 16.7992 32.4359 16.7533 32.2263C16.7486 32.2274 16.7439 32.2286 16.7404 32.2286C17.1132 32.9231 16.5651 32.4858 16.5166 32.2626C16.4874 32.2544 16.4581 32.2333 16.4288 32.204C16.8044 32.8125 16.1972 32.3864 16.2332 32.2756C15.5073 31.1575 14.0134 30.9839 12.9604 31.2802C12.9475 31.3201 12.9007 31.3236 12.8715 31.3025C8.39378 32.2749 9.54907 41.5639 14.1377 40.666C14.3341 40.6258 14.3294 40.7203 14.3684 40.7294C14.2624 40.4505 14.5612 40.564 14.5581 40.6225L14.5763 40.6217C14.5907 40.6204 14.5848 40.6188 14.5955 40.6225C14.493 40.0522 15.0698 40.8785 15.0242 40.9125C15.0419 40.9019 15.0618 40.896 15.0794 40.8937L15.0596 40.8395C14.9638 40.584 14.9721 40.6902 14.9727 40.5439C14.9008 40.363 14.8955 40.4421 14.9124 40.3243C15.1652 40.128 15.2398 40.7234 15.3241 40.7669C15.1796 40.565 15.2945 40.4001 15.4308 40.5097C16.4643 42.6881 17.7993 44.7349 19.5245 46.3472C19.7132 46.4963 19.9042 46.643 20.102 46.7815C20.8358 47.4221 21.9615 47.834 22.6485 48.4014C22.6485 48.4108 22.6439 48.4225 22.6369 48.4343L22.6526 48.4485L22.6685 48.4636L22.9075 48.5786C22.9777 48.6385 23.041 48.7054 23.0971 48.7794C23.157 48.8486 23.2095 48.9249 23.2542 49.0059C23.2764 49.1045 23.2272 49.1456 23.1335 49.1033C23.0924 49.0892 23.0515 49.0728 23.0105 49.0576C23.0129 49.0611 23.0139 49.0634 23.0164 49.0658C23.0298 49.0861 23.1208 49.2975 23.016 49.2631L23.0035 49.2583C22.946 49.2371 22.8887 49.2137 22.8325 49.1914C22.8993 49.2747 22.9601 49.3651 23.0139 49.4414C23.0714 49.5013 23.1065 49.5717 23.1206 49.6515C23.1182 49.6961 23.0937 49.7149 23.0492 49.709C22.9813 49.6867 22.9145 49.6632 22.8476 49.6386L22.8666 49.675C22.9139 49.7681 22.981 49.9243 22.8618 49.8722C22.7598 49.8405 22.6615 49.8041 22.5631 49.7642C22.5548 49.7806 22.5385 49.7865 22.5057 49.7712C22.1929 49.6597 21.8907 49.5236 21.6014 49.3627C21.3472 49.1773 21.0906 48.9953 20.8354 48.8111C20.5951 48.6667 20.3632 48.5059 20.1419 48.3251C18.6607 47.3663 17.3639 46.1484 16.3351 44.7919C14.6145 46.2851 11.1744 44.8586 9.04645 43.6897C7.16423 42.645 6.42441 40.7134 6.23313 38.6308C5.83547 35.827 3.54902 34.8673 3.70808 28.7154C3.70457 28.7166 3.70094 28.7166 3.69625 28.7166C3.61309 28.6919 3.53238 28.659 3.45625 28.6168C3.37777 28.5792 3.30397 28.5346 3.23475 28.4806L3.14924 28.3621C3.10485 28.3374 3.06502 28.3116 3.03457 28.2858L3.01877 28.3062C2.96878 28.3666 3.00238 28.2757 3.00528 28.2576L2.85674 28.0552C2.50453 27.5733 2.11813 27.0326 1.80337 26.6002L1.79346 26.6177C1.78634 26.631 1.78257 26.6406 1.78592 26.6448C1.03685 25.5663 0.332409 24.2636 0.136679 23.0024C-0.0944262 22.031 -0.00411612 21.03 0.197471 20.1301C1.0618 16.979 3.89316 9.84834 7.61086 6.79209ZM27.9391 50.3702L27.8922 50.3283L27.9335 50.3802C27.9551 50.4069 27.9773 50.431 28.0133 50.4556C28.011 50.4473 28.011 50.4391 28.012 50.4297C27.9881 50.4114 27.9637 50.3914 27.9391 50.3702ZM34.513 1.7177C29.0184 1.2443 23.6142 2.45731 18.3711 3.92564L18.0094 4.02981C15.0281 4.8823 11.8757 5.6494 9.35627 7.47407C5.83629 10.1758 4.01861 14.4739 2.43238 18.4422C1.04728 21.3906 1.75535 24.7151 3.84267 26.7739C4.05984 24.7281 4.4301 22.7421 5.00874 20.7721C5.1295 20.4643 5.03814 20.3635 5.29841 20.3233C5.69151 25.6322 3.75541 29.5547 7.58685 35.8465C9.24933 38.8153 7.32482 40.9876 12.0195 42.5498L12.1466 42.5985C13.1247 42.9683 14.1928 43.2603 15.1508 43.0535L15.0649 42.9136C14.9774 42.7695 14.9508 42.6996 15.0781 42.638C15.0747 42.6309 15.07 42.6239 15.0652 42.6157C14.9623 42.4208 14.8627 42.2236 14.7677 42.0241C14.7292 42.037 14.6905 42.0464 14.6506 42.0569C14.6765 42.1051 14.6799 42.1532 14.6074 42.1696C14.3493 42.2584 14.0842 42.2939 13.8129 42.2773L13.7546 42.2729C13.4481 42.2541 13.2549 42.1981 13.0822 42.1461C13.0249 42.1368 12.9675 42.1274 12.9112 42.1156C12.3554 41.9921 11.767 41.678 11.3862 41.3667C7.04546 38.8961 7.49408 30.4858 12.8445 29.6908C12.9543 24.3955 15.4676 15.4619 19.6387 10.416C23.409 5.77462 33.702 3.76295 40.8631 4.47228C40.9675 4.50691 41.0718 4.54189 41.1762 4.57722C42.281 4.67559 43.3339 5.16882 44.4396 5.39795C43.6457 4.80177 42.7452 4.40467 41.8176 4.0672C39.9695 2.93435 37.8508 2.32139 35.8039 1.88907C35.3799 1.7846 34.95 1.72709 34.513 1.7177ZM12.5996 33.9447C12.8873 33.7881 12.8544 33.9393 12.9206 33.8954C14.9898 33.7263 17.2211 35.5418 18.3778 37.0553C18.2865 37.1504 18.0393 36.8687 17.996 36.8241C17.9901 36.8299 17.9831 36.8346 17.9761 36.837L18.0083 36.8825C18.4771 37.5567 17.5477 36.7634 17.4607 36.5999C17.4454 36.6081 17.4302 36.6128 17.4126 36.6093C17.4863 36.6817 17.7113 36.8706 17.75 37.0048L17.8096 37.0546C18.3722 37.5373 18.3255 37.9004 17.6868 37.215C17.702 37.2466 17.7078 37.276 17.6973 37.2995L17.7193 37.3141C18.0333 37.5341 18.2916 38.1471 17.6352 37.5178C17.7035 37.9775 16.9848 37.089 16.9617 37.0952C15.7179 36.1168 13.8868 35.1654 12.3267 35.0375L12.273 35.0313C11.9867 34.9945 11.8514 34.9094 11.9519 34.7218C11.5993 34.6377 11.6819 34.4638 11.8488 34.4694C11.6001 34.3055 11.824 34.1488 11.9683 34.21C11.8691 33.9347 12.267 34.1181 12.3033 34.0797C12.5098 33.7605 12.5654 34.0268 12.5996 33.9447ZM8.26217 16.8833C9.25605 16.5185 12.1918 17.6106 11.9569 19.057C11.8171 19.3891 11.3563 19.5794 11.0324 19.3919L10.6097 19.1074C9.87403 18.6137 9.21057 18.1808 8.42077 17.7502C7.99089 17.5365 7.80582 17.0827 8.26217 16.8833ZM13.9168 14.7339L13.5329 14.4836C11.4616 13.1251 8.53331 11.0666 13.7264 13.1964C14.3183 13.4507 15.1048 13.6012 15.4277 14.1661C15.935 15.2071 14.5999 15.2771 13.9168 14.7339ZM14.1496 8.63846C13.9833 8.00636 16.0516 8.74809 16.6536 8.94365L16.7453 8.97836C17.331 9.19705 18.0024 9.39992 18.3527 9.90641C18.7631 10.6062 17.9324 10.7512 17.4178 10.4351C16.3628 9.74419 15.2061 9.2229 14.1496 8.63846ZM19.4089 5.69396C18.2447 4.41998 21.3603 5.64041 21.827 5.97918L21.8404 5.98917C22.1886 6.23485 22.118 6.76401 21.7908 6.91942C20.8599 6.93715 20.1749 6.15961 19.4089 5.69396ZM24.7064 4.29816C22.8557 2.96529 25.2936 3.59927 26.1403 4.12162C26.7174 4.63164 26.123 5.49263 24.7064 4.29816Z" fill="#333333"/>
<path fill-rule="evenodd" clip-rule="evenodd" d="M31.4434 42.2285C32.0695 40.9764 35.2541 40.6318 40.9971 41.1946L41.7248 47.1644C38.9538 48.0551 36.7435 48.4071 35.094 48.2205C32.6198 47.9405 30.5041 44.1066 31.4434 42.2285Z" fill="#F9F9F9"/>
<path fill-rule="evenodd" clip-rule="evenodd" d="M32.0466 45.3634C31.749 44.7268 37.9075 42.9907 39.8143 44.177C41.0854 44.968 41.5223 45.9028 41.1248 46.9816C35.7783 48.2011 32.7522 47.6617 32.0466 45.3634Z" fill="#B4B4B4"/>
<path fill-rule="evenodd" clip-rule="evenodd" d="M30.9064 41.1178C32.3438 39.4475 34.7648 39.3311 36.7703 39.7488C38.0573 40.0169 39.3103 40.4634 40.6175 40.6289C41.228 40.7063 41.845 40.7294 42.46 40.718C43.064 40.7068 43.669 40.5851 44.271 40.6078C44.3634 40.6112 44.3984 40.7327 44.3183 40.7821C43.4925 41.2893 42.3801 41.452 41.4046 41.5512C41.4077 41.6234 41.412 41.6938 41.422 41.7535C41.4486 41.9128 41.4729 42.071 41.4925 42.2314C41.5368 42.593 41.5863 42.9535 41.6357 43.3145C41.7332 44.0248 41.7638 44.7576 41.9351 45.4557L41.965 45.5717C42.0047 45.7184 42.0137 45.8507 42.0004 45.97L42.0401 45.952L42.1654 45.8913L42.2476 45.8526C42.5474 45.7136 42.8334 45.6124 43.1859 45.6461C43.4542 45.6717 43.6795 45.8547 43.6811 46.1412C43.6878 47.4272 41.9548 47.8407 40.9635 48.0868L40.6728 48.1585C39.411 48.4662 38.1227 48.736 36.825 48.8005C34.7424 48.9039 32.4022 48.3295 31.0398 46.6402C29.7687 45.0641 29.5357 42.7104 30.9064 41.1178ZM40.3639 46.5206C40.1454 44.5846 37.7662 44.4781 37.0818 45.7059C36.7781 43.9946 32.2853 45.558 32.6366 45.8981C33.9682 47.1877 35.9889 47.3038 37.726 47.0653C38.6107 46.9438 39.4961 46.746 40.3639 46.5206ZM37.7235 41.4463L37.1254 41.3602L36.8898 41.3277C35.407 41.1292 33.7394 41.0266 32.5203 41.9773C32.0752 42.3242 31.8247 42.7769 31.7311 43.2631C32.8847 43.0921 34.0425 42.9616 35.2037 42.853L35.5205 42.8239C36.2471 42.7584 36.9734 42.6894 37.6992 42.617L38.2151 42.5648L38.7308 42.5112C38.9123 42.4922 40.1353 42.4296 40.3652 42.4717C40.3897 42.2651 40.4218 41.818 40.4737 41.6169C39.6048 41.6464 38.7397 41.5819 37.8759 41.467L37.7235 41.4463ZM40.4769 32.7928C41.3633 33.3316 42.7139 34.5879 41.7603 35.9237C40.6379 37.1014 39.0219 35.751 38.2255 35.1403C37.4871 34.667 36.6574 35.8843 37.3425 36.437C43.097 40.6974 45.4323 32.9337 40.9252 32.1593C40.429 32.074 40.2447 32.6261 40.4769 32.7928ZM42.0631 35.0626L42.1058 35.0394L42.1202 35.0307C42.1451 35.0146 42.1292 35.0163 42.0725 35.0359L42.03 35.0512V35.0812C42.041 35.0746 42.0526 35.0695 42.0631 35.0626ZM30.7111 30.2758L30.711 30.2493C30.7126 29.5008 31.1486 27.7918 32.2261 27.7918C32.8993 27.7918 33.308 28.9549 33.3788 30.1539L33.3812 30.2028C33.4125 30.9482 33.2079 32.5776 32.2261 32.5776C31.234 32.5776 30.7213 31.0344 30.7111 30.2758ZM46.5758 30.041L46.576 30.0146C46.5743 29.266 46.1384 27.557 45.0608 27.557C44.4044 27.557 43.9995 28.6627 43.9141 29.8293L43.9082 29.9191C43.8657 30.6394 44.057 32.3428 45.0608 32.3428C46.053 32.3428 46.5656 30.7996 46.5758 30.041ZM31.3259 22.6884C32.2054 22.5547 33.3699 22.8087 33.7799 23.7029C33.9625 24.1013 33.7462 24.5418 33.2857 24.5639C32.1728 24.6172 31.1747 24.3695 30.1979 25.0931C29.7775 25.4046 29.4241 25.8359 29.1275 26.2661L29.0152 26.4298L28.9223 26.5647C28.7209 26.8608 28.5302 27.1825 28.56 27.5397C28.5688 27.6455 28.4607 27.7458 28.3579 27.7416C27.7177 27.7153 27.6488 26.9127 27.733 26.4306C27.8896 25.5359 28.3226 24.696 28.9228 24.0196C29.5531 23.3092 30.3852 22.8314 31.3259 22.6884ZM43.4384 23.7742C44.0448 23.3844 44.8205 23.2346 45.5309 23.292C46.9316 23.4048 49.2814 24.5955 48.9721 26.3063C48.8767 26.834 48.1428 27.1124 47.7104 26.8196C47.2454 26.5049 47.1323 26.0158 46.7862 25.6045C46.5102 25.276 46.1602 25.0383 45.7856 24.8358C45.4163 24.6361 44.989 24.515 44.5699 24.4709L44.5001 24.4643C44.2479 24.4428 42.9741 24.4485 43.161 24.9241C43.1977 25.0171 43.0592 25.0909 42.9955 25.0204C42.605 24.5885 43.0473 24.0256 43.4384 23.7742Z" fill="#333333"/>
<path fill-rule="evenodd" clip-rule="evenodd" d="M50.3854 32.8564C49.0193 34.2217 46.7388 34.6135 44.9213 33.8813C40.2544 31.9954 42.5387 26.1131 46.1378 24.5334C46.5875 24.425 47.188 24.1679 47.7356 24.1095C47.7851 24.086 47.8929 24.1541 48.0235 24.0897C51.9922 24.5183 52.896 30.477 50.3854 32.8564ZM35.3328 33.2059C33.8006 35.1715 30.9521 35.7779 28.6247 34.8641C24.0269 33.1128 25.6577 27.8967 28.8034 25.8518C35.4485 23.4368 38.1925 29.5817 35.3328 33.2059ZM25.3658 28.8507C25.3615 28.8488 25.3572 28.8478 25.3529 28.8458C25.3772 28.8355 25.4015 28.8252 25.4257 28.8146C25.4178 28.8345 25.4092 28.8542 25.4016 28.8741C25.3896 28.8662 25.3792 28.8569 25.3658 28.8507ZM53.5486 26.726C53.1735 26.7268 52.6316 26.7864 52.321 27.0382C51.5552 24.5402 48.7285 22.2283 46.2702 23.9141C44.3343 24.5162 42.8977 25.8517 42.0813 27.6271C40.6092 26.7802 38.2944 27.1419 37.0179 28.2618C36.1819 25.59 34.1243 24.6543 31.6753 24.5162C29.0023 24.0928 26.3381 26.6036 25.5068 28.6178C24.8156 28.5418 23.7828 28.329 23.1325 28.7416C18.9122 27.6711 11.5337 27.0809 10.6758 27.6757C10.0644 27.9026 9.72882 29.2985 10.5828 29.3738C11.3271 29.2716 10.496 28.351 11.2461 28.2505C15.2432 28.0109 19.1234 28.7895 23.0782 29.1162C23.4312 29.5755 24.5721 29.7292 25.1807 29.5446C24.2221 32.9615 26.2914 35.2861 29.3919 35.9824C34.1927 37.049 38.3696 32.8952 37.1142 28.5746C38.5685 27.8748 40.2413 27.9049 41.8256 28.2735C39.1783 37.6971 54.8699 37.2743 52.4191 27.3611C54.0501 28.1457 54.4043 26.8844 53.5486 26.726Z" fill="#333333"/>
</svg>
