<svg width="20" height="14" viewBox="0 0 20 14" fill="none" xmlns="http://www.w3.org/2000/svg">
<path d="M17 0H7.83C7.03462 0.000700208 6.27207 0.31723 5.71 0.88L0.29 6.29C0.196272 6.38296 0.121877 6.49356 0.0711086 6.61542C0.0203399 6.73728 -0.00579834 6.86799 -0.00579834 7C-0.00579834 7.13201 0.0203399 7.26272 0.0711086 7.38458C0.121877 7.50644 0.196272 7.61704 0.29 7.71L5.71 13.12C6.27207 13.6828 7.03462 13.9993 7.83 14H17C17.7956 14 18.5587 13.6839 19.1213 13.1213C19.6839 12.5587 20 11.7956 20 11V3C20 2.20435 19.6839 1.44129 19.1213 0.87868C18.5587 0.316071 17.7956 0 17 0ZM18 11C18 11.2652 17.8946 11.5196 17.7071 11.7071C17.5196 11.8946 17.2652 12 17 12H7.83C7.56523 11.9963 7.31163 11.8927 7.12 11.71L2.41 7L7.12 2.29C7.31163 2.10727 7.56523 2.00368 7.83 2H17C17.2652 2 17.5196 2.10536 17.7071 2.29289C17.8946 2.48043 18 2.73478 18 3V11ZM14.71 4.29C14.617 4.19627 14.5064 4.12188 14.3846 4.07111C14.2627 4.02034 14.132 3.9942 14 3.9942C13.868 3.9942 13.7373 4.02034 13.6154 4.07111C13.4936 4.12188 13.383 4.19627 13.29 4.29L12 5.59L10.71 4.29C10.5217 4.1017 10.2663 3.99591 10 3.99591C9.7337 3.99591 9.4783 4.1017 9.29 4.29C9.1017 4.4783 8.99591 4.7337 8.99591 5C8.99591 5.2663 9.1017 5.5217 9.29 5.71L10.59 7L9.29 8.29C9.19627 8.38296 9.12188 8.49356 9.07111 8.61542C9.02034 8.73728 8.9942 8.86799 8.9942 9C8.9942 9.13201 9.02034 9.26272 9.07111 9.38458C9.12188 9.50644 9.19627 9.61704 9.29 9.71C9.38296 9.80373 9.49356 9.87812 9.61542 9.92889C9.73728 9.97966 9.86799 10.0058 10 10.0058C10.132 10.0058 10.2627 9.97966 10.3846 9.92889C10.5064 9.87812 10.617 9.80373 10.71 9.71L12 8.41L13.29 9.71C13.383 9.80373 13.4936 9.87812 13.6154 9.92889C13.7373 9.97966 13.868 10.0058 14 10.0058C14.132 10.0058 14.2627 9.97966 14.3846 9.92889C14.5064 9.87812 14.617 9.80373 14.71 9.71C14.8037 9.61704 14.8781 9.50644 14.9289 9.38458C14.9797 9.26272 15.0058 9.13201 15.0058 9C15.0058 8.86799 14.9797 8.73728 14.9289 8.61542C14.8781 8.49356 14.8037 8.38296 14.71 8.29L13.41 7L14.71 5.71C14.8037 5.61704 14.8781 5.50644 14.9289 5.38458C14.9797 5.26272 15.0058 5.13201 15.0058 5C15.0058 4.86799 14.9797 4.73728 14.9289 4.61542C14.8781 4.49356 14.8037 4.38296 14.71 4.29Z" fill="#1B1B1B"/>
</svg>
